<svg xmlns="http://www.w3.org/2000/svg" width="100" height="100" viewBox="0 0 60.9 55.6"><defs><path id="d" d="M177 273h216v75H177z"/><path id="c" d="M175 269h228v63H175z"/><path id="b" d="M319 317h8v27h-8z"/><path id="a" d="M173 287h167v39H173z"/></defs><path d="M42 6l3-3v6" fill="none" stroke="#000" stroke-width="1.1"/><path d="M13 40s-5-6-4-13c1-9 3-9 5-12 6-7-3-11-7-7l-3 6-2 10c0 15 11 23 12 23" fill="none" stroke="#000"/><path d="M42 34v2h1zm-2 5l-3 6 3 3v-3l1-3-1-3z" fill="gray" stroke="#000" stroke-width=".4"/><path d="M34 20s-13-8-16-6c-3 3-3 7-1 7l9-2" fill="none" stroke="#000" stroke-width="1.1"/><path d="M38 24s-15 6-9 15c6 8-2 13-2 13s-6 4-12-3c-3-5-4-18 4-26 9-8 15-3 15-3" fill="none" stroke="#000" stroke-width="1.1"/><path d="M37 25v0" fill="#fff" stroke="#000" stroke-width=".1"/><path d="M42 3l-6 8v0c-1 2-3 3-3 6 0 4 4 8 9 8s8-3 8-8c0-4-3-8-8-8h0z" fill="none" stroke="#000" stroke-width="1.1"/><path d="M43 12c-2 3-3 6-5 7l1 1z" stroke="#000" stroke-width=".5"/><path d="M38 24s8 8 9 14c0 2-3 10-6 5-5-12 2-6 2-6z" fill="none" stroke="#000" stroke-width="1.1"/><path d="M43 35s9 9 14-7c4-15-6-19-10-17-5 2-7 7-7 13v8l3 3z" fill="gray" stroke="#000" stroke-width=".4"/><path d="M43 20s-4 10 1 14c7 5 12-7 12-12 0-3-2-8-4-8-3-1-8 0-9 6z" fill="#c7d4d6" stroke="#000" stroke-width=".4"/><path d="M46 24l4-6v1M45 27l5-6v1" fill="none" stroke="#000" stroke-width=".2"/><text style="line-height:1.25;-inkscape-font-specification:'Snap ITC'" x="86.8" y="41" transform="scale(.63344 1.57869)" font-size="4.9" font-family="Snap ITC" stroke-width=".1"/>
</svg>